HIERARCHY
ROOT hip
{
  OFFSET 5.51535 103.731 -2.80141
  CHANNELS 6 Xposition Yposition Zposition Zrotation Xrotation Yrotation
  JOINT abdomen
  {
    OFFSET 0 -1.186 -1.5018
    CHANNELS 6 Xposition Yposition Zposition Zrotation Xrotation Yrotation
    JOINT abdomen2
    {
      OFFSET 0 9.964 0.2134
      CHANNELS 6 Xposition Yposition Zposition Zrotation Xrotation Yrotation
      JOINT chest
      {
        OFFSET 0 13.134 -3.2573
        CHANNELS 6 Xposition Yposition Zposition Zrotation Xrotation Yrotation
        JOINT neck
        {
          OFFSET 0 20.686 -1.6905
          CHANNELS 6 Xposition Yposition Zposition Zrotation Xrotation Yrotation
          JOINT head
          {
            OFFSET 0 7.23801 -0.1237
            CHANNELS 6 Xposition Yposition Zposition Zrotation Xrotation Yrotation
            End Site
            {
              OFFSET 0 0 0
            }
          }
        }
        JOINT lCollar
        {
          OFFSET 1.7069 20.075 5.0056
          CHANNELS 6 Xposition Yposition Zposition Zrotation Xrotation Yrotation
          JOINT lShldr
          {
            OFFSET 13.6458 -0.0470195 -4.849
            CHANNELS 6 Xposition Yposition Zposition Zrotation Xrotation Yrotation
            JOINT lForeArm
            {
              OFFSET 28.3255 -0.97589 2.2888
              CHANNELS 6 Xposition Yposition Zposition Zrotation Xrotation Yrotation
              JOINT lHand
              {
                OFFSET 22.1583 -0.529998 10.8316
                CHANNELS 6 Xposition Yposition Zposition Zrotation Xrotation Yrotation
                JOINT lThumb1
                {
                  OFFSET 0.786 0.111997 2.5817
                  CHANNELS 6 Xposition Yposition Zposition Zrotation Xrotation Yrotation
                  JOINT lThumb2
                  {
                    OFFSET 0.360097 -0.877999 4.2331
                    CHANNELS 6 Xposition Yposition Zposition Zrotation Xrotation Yrotation
                    JOINT lThumb2_End
                    {
                      OFFSET 1.8127 -1.21601 2.2227
                      CHANNELS 6 Xposition Yposition Zposition Zrotation Xrotation Yrotation
                      End Site
                      {
                        OFFSET 0.0180981 -0.012195 0.0222007
                      }
                    }
                  }
                }
                JOINT lCarpal1
                {
                  OFFSET 0.9571 1.114 1.7695
                  CHANNELS 6 Xposition Yposition Zposition Zrotation Xrotation Yrotation
                  JOINT lIndex1
                  {
                    OFFSET 4.12461 0.486992 4.1451
                    CHANNELS 6 Xposition Yposition Zposition Zrotation Xrotation Yrotation
                    JOINT lIndex2
                    {
                      OFFSET 3.4052 -1.45401 2.7682
                      CHANNELS 6 Xposition Yposition Zposition Zrotation Xrotation Yrotation
                      JOINT lIndex2_End
                      {
                        OFFSET 1.45309 -1.79499 1.2713
                        CHANNELS 6 Xposition Yposition Zposition Zrotation Xrotation Yrotation
                        End Site
                        {
                          OFFSET 0.0144979 -0.0179083 0.0126995
                        }
                      }
                    }
                  }
                  JOINT lMid1
                  {
                    OFFSET 5.6954 0.209987 2.1184
                    CHANNELS 6 Xposition Yposition Zposition Zrotation Xrotation Yrotation
                    JOINT lMid2
                    {
                      OFFSET 3.9766 -1.53999 2.3863
                      CHANNELS 6 Xposition Yposition Zposition Zrotation Xrotation Yrotation
                      JOINT lMid2_End
                      {
                        OFFSET 1.4042 -1.926 1.125
                        CHANNELS 6 Xposition Yposition Zposition Zrotation Xrotation Yrotation
                        End Site
                        {
                          OFFSET 0.013999 -0.0193044 0.011301
                        }
                      }
                    }
                  }
                }
                JOINT lCarpal2
                {
                  OFFSET 2.0956 0.66 -0.3894
                  CHANNELS 6 Xposition Yposition Zposition Zrotation Xrotation Yrotation
                  JOINT lRing1
                  {
                    OFFSET 5.0395 -0.090013 2.4971
                    CHANNELS 6 Xposition Yposition Zposition Zrotation Xrotation Yrotation
                    JOINT lRing2
                    {
                      OFFSET 3.7921 -1.55199 1.4806
                      CHANNELS 6 Xposition Yposition Zposition Zrotation Xrotation Yrotation
                      JOINT lRing2_End
                      {
                        OFFSET 1.4655 -1.808 0.9609
                        CHANNELS 6 Xposition Yposition Zposition Zrotation Xrotation Yrotation
                        End Site
                        {
                          OFFSET 0.0147015 -0.0181014 0.00959957
                        }
                      }
                    }
                  }
                  JOINT lPinky1
                  {
                    OFFSET 4.9141 -1.269 0.3591
                    CHANNELS 6 Xposition Yposition Zposition Zrotation Xrotation Yrotation
                    JOINT lPinky2
                    {
                      OFFSET 3.1477 -1.685 0.8462
                      CHANNELS 6 Xposition Yposition Zposition Zrotation Xrotation Yrotation
                      JOINT lPinky2_End
                      {
                        OFFSET 0.805498 -1.58501 0.795499
                        CHANNELS 6 Xposition Yposition Zposition Zrotation Xrotation Yrotation
                        End Site
                        {
                          OFFSET 0.00809703 -0.0157944 0.00799848
                        }
                      }
                    }
                  }
                }
              }
            }
          }
        }
        JOINT rCollar
        {
          OFFSET -1.7069 20.075 5.0056
          CHANNELS 6 Xposition Yposition Zposition Zrotation Xrotation Yrotation
          JOINT rShldr
          {
            OFFSET -13.6458 -0.0470107 -4.849
            CHANNELS 6 Xposition Yposition Zposition Zrotation Xrotation Yrotation
            JOINT rForeArm
            {
              OFFSET -28.3255 -0.975895 2.2888
              CHANNELS 6 Xposition Yposition Zposition Zrotation Xrotation Yrotation
              JOINT rHand
              {
                OFFSET -22.1583 -0.530007 10.8316
                CHANNELS 6 Xposition Yposition Zposition Zrotation Xrotation Yrotation
                JOINT rThumb1
                {
                  OFFSET -0.785997 0.112005 2.5817
                  CHANNELS 6 Xposition Yposition Zposition Zrotation Xrotation Yrotation
                  JOINT rThumb2
                  {
                    OFFSET -0.360106 -0.877994 4.2331
                    CHANNELS 6 Xposition Yposition Zposition Zrotation Xrotation Yrotation
                    JOINT rThumb2_End
                    {
                      OFFSET -1.8127 -1.216 2.2227
                      CHANNELS 6 Xposition Yposition Zposition Zrotation Xrotation Yrotation
                      End Site
                      {
                        OFFSET -0.0180972 -0.0121973 0.0222005
                      }
                    }
                  }
                }
                JOINT rCarpal1
                {
                  OFFSET -0.9571 1.114 1.7695
                  CHANNELS 6 Xposition Yposition Zposition Zrotation Xrotation Yrotation
                  JOINT rIndex1
                  {
                    OFFSET -4.1246 0.487011 4.1451
                    CHANNELS 6 Xposition Yposition Zposition Zrotation Xrotation Yrotation
                    JOINT rIndex2
                    {
                      OFFSET -3.4052 -1.45401 2.7682
                      CHANNELS 6 Xposition Yposition Zposition Zrotation Xrotation Yrotation
                      JOINT rIndex2_End
                      {
                        OFFSET -1.4531 -1.795 1.2713
                        CHANNELS 6 Xposition Yposition Zposition Zrotation Xrotation Yrotation
                        End Site
                        {
                          OFFSET -0.0145077 -0.0180048 0.0127017
                        }
                      }
                    }
                  }
                  JOINT rMid1
                  {
                    OFFSET -5.6954 0.210002 2.1184
                    CHANNELS 6 Xposition Yposition Zposition Zrotation Xrotation Yrotation
                    JOINT rMid2
                    {
                      OFFSET -3.9766 -1.54 2.3863
                      CHANNELS 6 Xposition Yposition Zposition Zrotation Xrotation Yrotation
                      JOINT rMid2_End
                      {
                        OFFSET -1.4042 -1.926 1.125
                        CHANNELS 6 Xposition Yposition Zposition Zrotation Xrotation Yrotation
                        End Site
                        {
                          OFFSET -0.0139948 -0.0192916 0.0112994
                        }
                      }
                    }
                  }
                }
                JOINT rCarpal2
                {
                  OFFSET -2.0956 0.66 -0.3894
                  CHANNELS 6 Xposition Yposition Zposition Zrotation Xrotation Yrotation
                  JOINT rRing1
                  {
                    OFFSET -5.03951 -0.0899879 2.4971
                    CHANNELS 6 Xposition Yposition Zposition Zrotation Xrotation Yrotation
                    JOINT rRing2
                    {
                      OFFSET -3.7921 -1.55201 1.4806
                      CHANNELS 6 Xposition Yposition Zposition Zrotation Xrotation Yrotation
                      JOINT rRing2_End
                      {
                        OFFSET -1.4655 -1.808 0.960901
                        CHANNELS 6 Xposition Yposition Zposition Zrotation Xrotation Yrotation
                        End Site
                        {
                          OFFSET -0.0146934 -0.0180999 0.00959832
                        }
                      }
                    }
                  }
                  JOINT rPinky1
                  {
                    OFFSET -4.91411 -1.26899 0.359202
                    CHANNELS 6 Xposition Yposition Zposition Zrotation Xrotation Yrotation
                    JOINT rPinky2
                    {
                      OFFSET -3.14769 -1.68501 0.846199
                      CHANNELS 6 Xposition Yposition Zposition Zrotation Xrotation Yrotation
                      JOINT rPinky2_End
                      {
                        OFFSET -0.805498 -1.585 0.7955
                        CHANNELS 6 Xposition Yposition Zposition Zrotation Xrotation Yrotation
                        End Site
                        {
                          OFFSET -0.00810035 -0.0158035 0.00800029
                        }
                      }
                    }
                  }
                }
              }
            }
          }
        }
      }
    }
  }
  JOINT lThigh
  {
    OFFSET 8.367 -8.2066 0.5982
    CHANNELS 6 Xposition Yposition Zposition Zrotation Xrotation Yrotation
    JOINT lShin
    {
      OFFSET 2.1923 -43.463 -0.4932
      CHANNELS 6 Xposition Yposition Zposition Zrotation Xrotation Yrotation
      JOINT lFoot
      {
        OFFSET 0.733301 -45.8593 -2.6451
        CHANNELS 6 Xposition Yposition Zposition Zrotation Xrotation Yrotation
        End Site
        {
          OFFSET 2.6618 -4.2699 12.3931
        }
      }
    }
  }
  JOINT rThigh
  {
    OFFSET -8.367 -8.2066 0.5982
    CHANNELS 6 Xposition Yposition Zposition Zrotation Xrotation Yrotation
    JOINT rShin
    {
      OFFSET -2.1923 -43.463 -0.4931
      CHANNELS 6 Xposition Yposition Zposition Zrotation Xrotation Yrotation
      JOINT rFoot
      {
        OFFSET -0.733299 -45.8593 -2.6451
        CHANNELS 6 Xposition Yposition Zposition Zrotation Xrotation Yrotation
        End Site
        {
          OFFSET -2.6618 -4.2699 12.3931
        }
      }
    }
  }
}
MOTION
Frames:	4
Frame Time:	0.0333333
33.6303 41.8114 -31.6643 16.4383 6.03158 -62.3938 -7.81196e-007 -1.186 -1.5018 -2.13445 -0.916947 -0.153249 2.90821e-007 9.964 0.213399 -4.27214 -1.82758 -0.340589 5.77713e-007 13.134 -3.2573 -4.27214 -1.82758 -0.340565 4.25504e-007 20.686 -1.6905 1.18251 -17.249 33.3614 1.41033e-006 7.23801 -0.123701 -1.54897 8.475 17.0952 1.7069 20.075 5.0056 4.02996 -2.9872 -15.9693 13.6458 -0.0470117 -4.849 -68.6102 11.9254 -43.6989 28.3255 -0.975894 2.2888 -4.11492 0.585309 -32.7652 22.1583 -0.529992 10.8316 -173.162 -21.4126 -148.793 0.786004 0.111996 2.5817 -9.06319 13.331 -8.01509 0.360098 -0.877999 4.2331 -3.44687 -0.222869 -6.29846 1.8127 -1.21601 2.2227 -3.31134 -0.22134 -6.05141 0.9571 1.114 1.7695 1.59028e-015 -6.36111e-015 7.95139e-016 4.1246 0.486993 4.1451 6.8934 0.115967 -6.60846 3.4052 -1.45401 2.7682 3.4503 -1.57981 -1.37136 1.4531 -1.79499 1.2713 -1.92411 0.837209 0.798501 5.6954 0.209988 2.1184 3.03993 1.94789 -0.343562 3.9766 -1.53999 2.3863 -4.16009 1.96976 1.78879 1.4042 -1.926 1.125 7.49251 -3.93384 -2.90215 2.0956 0.66 -0.3894 1.59028e-015 -6.36111e-015 7.95139e-016 5.0395 -0.0900135 2.4971 4.29728 -1.06717 2.91459 3.7921 -1.55199 1.4806 -4.71225 2.39136 2.31476 1.4655 -1.808 0.960901 6.58992 -3.73675 -2.96329 4.9141 -1.269 0.359101 -0.00377261 -1.98076 11.7228 3.1477 -1.685 0.846199 4.81048 -2.86802 -2.15722 0.805498 -1.58501 0.795499 -3.79364 2.08653 1.82981 -1.7069 20.075 5.0056 -32.0146 -0.468679 14.3373 -13.6458 -0.0470129 -4.849 51.8225 -17.5984 52.6145 -28.3255 -0.975884 2.2888 21.6273 -33.7178 61.6832 -22.1583 -0.530003 10.8316 4.61615 -48.5174 -11.4162 -0.786002 0.112005 2.5817 -29.9219 33.5003 36.3094 -0.360106 -0.877993 4.2331 3.27626 -2.39815 9.40459 -1.81269 -1.216 2.2227 -4.4436 5.02814 -15.268 -0.9571 1.114 1.7695 -3.18055e-015 7.95139e-016 -7.95139e-016 -4.12461 0.487014 4.1451 13.181 6.35514 -12.1375 -3.4052 -1.45401 2.7682 44.351 10.8049 -10.7982 -1.4531 -1.795 1.2713 45.4781 10.9508 -11.1601 -5.6954 0.210004 2.1184 7.07145 1.28872 -2.16558 -3.9766 -1.54 2.3863 52.3088 13.5299 -14.1043 -1.4042 -1.926 1.125 15.1721 5.32237 -2.78758 -2.0956 0.66 -0.3894 -3.18055e-015 7.95139e-016 -7.95139e-016 -5.03951 -0.0899859 2.49711 14.479 -0.343092 -5.3092 -3.7921 -1.55201 1.4806 20.9794 7.69277 -5.18752 -1.4655 -1.808 0.960898 22.5759 8.18061 -5.68282 -4.91411 -1.26899 0.3592 -6.22068 -8.66595 -6.14886 -3.1477 -1.68501 0.8462 25.2632 9.75614 -6.40168 -0.8055 -1.585 0.795501 14.9452 6.1883 -3.30341 8.36701 -8.2066 0.598205 91.534 -48.7259 96.3755 2.1923 -43.463 -0.493189 -179.733 36.9724 -178.069 0.733307 -45.8593 -2.64509 3.16491 -50.6303 -5.23823 -8.36701 -8.2066 0.598188 -88.0982 -46.6387 -65.0626 -2.19235 -43.463 -0.493082 162.337 31.4906 -151.368 -0.733297 -45.8593 -2.64508 -10.62 -43.2718 -5.97186 
31.8227 42.2973 -30.9424 16.9608 6.41871 -62.1517 7.87546e-007 -1.186 -1.5018 -2.26254 -1.40541 -0.0486271 -2.53616e-007 9.964 0.213398 -4.52829 -2.80781 -0.152928 -1.0351e-006 13.134 -3.2573 -4.52829 -2.8078 -0.152936 2.84612e-005 20.686 -1.69048 1.17937 -15.8448 33.9115 -2.84062e-006 7.23803 -0.123699 -2.14449 9.31331 16.9915 1.7069 20.075 5.0056 4.2919 -3.28005 -15.5955 13.6458 -0.0470098 -4.849 -70.5113 13.6737 -40.1403 28.3255 -0.9759 2.2888 -5.54351 1.44686 -34.441 22.1583 -0.529992 10.8316 -170.57 -21.5692 -148.378 0.786004 0.111997 2.5817 -9.06319 13.331 -8.0151 0.360098 -0.877999 4.2331 -3.44686 -0.222858 -6.29845 1.8127 -1.21601 2.2227 -3.31134 -0.221347 -6.05141 0.9571 1.114 1.7695 0 9.54166e-015 -0 4.1246 0.486992 4.1451 6.89339 0.115966 -6.60846 3.4052 -1.45401 2.7682 3.4503 -1.57981 -1.37136 1.4531 -1.79499 1.2713 -1.92412 0.837228 0.798509 5.6954 0.209988 2.1184 3.0399 1.94785 -0.343552 3.9766 -1.53999 2.3863 -4.16009 1.96978 1.7888 1.4042 -1.926 1.125 7.48946 -3.93214 -2.90106 2.0956 0.66 -0.3894 0 9.54166e-015 -0 5.0395 -0.0900127 2.4971 4.29727 -1.06714 2.9146 3.7921 -1.55199 1.4806 -4.71298 2.39171 2.31512 1.4655 -1.808 0.9609 6.58992 -3.73675 -2.96328 4.9141 -1.269 0.359102 -0.00379764 -1.98078 11.7228 3.1477 -1.685 0.846199 4.81049 -2.868 -2.15721 0.805498 -1.58501 0.7955 -3.79453 2.08691 1.83023 -1.7069 20.075 5.0056 -32.0801 -0.467789 14.3205 -13.6458 -0.0470114 -4.84901 54.5446 -14.2794 48.5062 -28.3255 -0.975895 2.2888 26.777 -30.7618 68.7186 -22.1583 -0.53001 10.8316 1.1663 -44.7087 -11.8554 -0.786 0.112004 2.5817 -29.9219 33.5004 36.3094 -0.360105 -0.877994 4.2331 3.27635 -2.39824 9.40455 -1.81269 -1.216 2.2227 -4.44361 5.02815 -15.268 -0.9571 1.114 1.7695 -6.36111e-015 -7.95139e-016 -7.95139e-016 -4.1246 0.487011 4.1451 13.181 6.35521 -12.1375 -3.4052 -1.45401 2.7682 44.351 10.8049 -10.7982 -1.4531 -1.795 1.2713 45.4781 10.9509 -11.1601 -5.6954 0.21 2.1184 7.07144 1.28881 -2.16559 -3.9766 -1.54 2.3863 52.3088 13.53 -14.1043 -1.4042 -1.926 1.125 15.1721 5.32243 -2.78756 -2.0956 0.66 -0.3894 -6.36111e-015 -7.95139e-016 -7.95139e-016 -5.03951 -0.0899878 2.4971 14.479 -0.343098 -5.30919 -3.7921 -1.55201 1.4806 20.9794 7.69281 -5.18751 -1.4655 -1.808 0.960899 22.5759 8.1806 -5.68282 -4.91411 -1.26899 0.3592 -6.22066 -8.66595 -6.14886 -3.1477 -1.68501 0.846201 25.2632 9.756 -6.4017 -0.8055 -1.585 0.795498 14.9452 6.18831 -3.3034 8.36701 -8.2066 0.598201 88.1523 -49.4915 91.8873 2.1923 -43.463 -0.4932 -179.758 37.6841 -177.976 0.733301 -45.8593 -2.64507 1.72053 -50.5214 -5.77255 -8.36701 -8.2066 0.598194 -83.9524 -47.252 -61.1505 -2.19226 -43.463 -0.493122 162.076 32.2434 -151.356 -0.733288 -45.8593 -2.64512 -10.6973 -42.3719 -7.15099 
29.8357 42.8825 -30.1012 16.9812 6.54335 -61.7567 5.82689e-007 -1.186 -1.5018 -2.38471 -1.76075 0.0666203 -7.0363e-007 9.964 0.2134 -4.77075 -3.52275 0.0598947 -8.74961e-007 13.134 -3.2573 -4.77075 -3.52276 0.0599159 -2.29426e-005 20.6863 -1.69053 1.18114 -14.6569 34.5468 -4.1382e-007 7.23803 -0.123702 -2.81665 10.4718 17.2071 1.7069 20.075 5.0056 4.4691 -3.4794 -15.2549 13.6458 -0.0470108 -4.84901 -72.3367 15.2418 -36.3684 28.3255 -0.975901 2.28879 -6.95097 2.59022 -36.289 22.1583 -0.529992 10.8316 -168 -21.666 -147.902 0.786003 0.111996 2.5817 -9.06314 13.3311 -8.01509 0.360097 -0.878 4.2331 -3.44687 -0.222878 -6.29846 1.8127 -1.21601 2.2227 -3.31136 -0.221378 -6.05141 0.9571 1.114 1.7695 7.95139e-016 -9.54166e-015 -1.59028e-015 4.1246 0.486992 4.1451 6.89338 0.115924 -6.60846 3.4052 -1.45401 2.7682 3.4503 -1.57982 -1.37136 1.4531 -1.79499 1.2713 -1.92411 0.837209 0.798505 5.6954 0.209987 2.1184 3.03989 1.94783 -0.343557 3.9766 -1.53999 2.3863 -4.16008 1.96975 1.78879 1.4042 -1.926 1.125 7.48641 -3.93045 -2.89997 2.0956 0.66 -0.3894 7.95139e-016 -9.54166e-015 -1.59028e-015 5.0395 -0.0900128 2.4971 4.29727 -1.06717 2.91459 3.7921 -1.55199 1.4806 -4.71368 2.39203 2.31547 1.4655 -1.808 0.960898 6.58992 -3.73674 -2.96327 4.9141 -1.269 0.3591 -0.00380698 -1.98084 11.7228 3.1477 -1.685 0.846199 4.81048 -2.86801 -2.15721 0.805498 -1.58501 0.795501 -3.79537 2.0873 1.83062 -1.7069 20.075 5.0056 -32.1582 -0.466783 14.301 -13.6458 -0.0470098 -4.849 57.458 -11.0785 43.9231 -28.3255 -0.975889 2.2888 31.8087 -26.5484 75.2056 -22.1583 -0.530001 10.8316 -2.15083 -40.4214 -11.4228 -0.786001 0.112005 2.5817 -29.9218 33.5002 36.3093 -0.360104 -0.877995 4.2331 3.27634 -2.39824 9.40454 -1.8127 -1.216 2.2227 -4.44363 5.02818 -15.268 -0.9571 1.114 1.7695 -0 -7.95139e-016 -0 -4.12461 0.487013 4.1451 13.181 6.35506 -12.1375 -3.4052 -1.45401 2.7682 44.351 10.8049 -10.7982 -1.4531 -1.795 1.2713 45.4781 10.9509 -11.1601 -5.6954 0.210002 2.1184 7.0715 1.28863 -2.16558 -3.9766 -1.54 2.3863 52.3088 13.53 -14.1043 -1.4042 -1.926 1.125 15.1721 5.32232 -2.7876 -2.0956 0.66 -0.3894 -0 -7.95139e-016 -0 -5.03951 -0.0899853 2.4971 14.479 -0.343107 -5.3092 -3.7921 -1.55201 1.4806 20.9794 7.69289 -5.18748 -1.4655 -1.808 0.9609 22.5759 8.18059 -5.68281 -4.91411 -1.26899 0.359202 -6.22067 -8.66597 -6.14887 -3.1477 -1.68501 0.846201 25.2632 9.75604 -6.40171 -0.8055 -1.585 0.795499 14.9452 6.18829 -3.3034 8.36701 -8.20661 0.598205 83.636 -49.9923 86.3045 2.1923 -43.463 -0.493218 -179.788 38.5489 -177.958 0.733302 -45.8593 -2.64508 1.62718 -49.9639 -4.89634 -8.36701 -8.2066 0.598191 -78.4892 -47.1926 -55.6545 -2.1922 -43.463 -0.493116 161.673 33.3307 -151.381 -0.733292 -45.8593 -2.64509 -9.64043 -41.7443 -7.45115 
27.7299 43.5692 -29.1897 16.2778 6.49563 -61.2603 -1.56248e-007 -1.186 -1.5018 -2.4742 -1.85312 0.132918 -3.92201e-007 9.964 0.2134 -4.94799 -3.71025 0.185834 3.33832e-007 13.134 -3.2573 -4.94799 -3.71025 0.185814 4.86496e-006 20.6861 -1.6905 1.19733 -14.342 35.3728 -1.61996e-006 7.23802 -0.123701 -3.27875 11.5323 17.6496 1.7069 20.075 5.0056 4.44193 -3.46948 -14.7999 13.6458 -0.0470124 -4.84899 -73.3871 16.1797 -32.9492 28.3255 -0.975897 2.2888 -8.7721 4.07413 -38.3292 22.1583 -0.529991 10.8316 -165.207 -21.8632 -147.416 0.786004 0.111997 2.5817 -9.06312 13.3311 -8.01506 0.360097 -0.878 4.2331 -3.44688 -0.22288 -6.29844 1.8127 -1.21601 2.2227 -3.31138 -0.221439 -6.0514 0.9571 1.114 1.7695 1.59028e-015 0 1.19271e-015 4.1246 0.486992 4.1451 6.89337 0.115906 -6.60846 3.4052 -1.45401 2.7682 3.45029 -1.57983 -1.37135 1.4531 -1.79499 1.2713 -1.92412 0.837226 0.798509 5.6954 0.209987 2.1184 3.03988 1.94778 -0.343565 3.9766 -1.53999 2.3863 -4.1601 1.96973 1.7888 1.4042 -1.926 1.125 7.48337 -3.92874 -2.89888 2.0956 0.66 -0.3894 1.59028e-015 0 1.19271e-015 5.0395 -0.0900126 2.4971 4.29725 -1.06722 2.91459 3.7921 -1.55199 1.4806 -4.7144 2.39241 2.31584 1.4655 -1.808 0.960901 6.58992 -3.73677 -2.96326 4.9141 -1.269 0.359103 -0.00384077 -1.98091 11.7228 3.1477 -1.685 0.846199 4.81048 -2.86802 -2.15721 0.805498 -1.58501 0.7955 -3.79624 2.08771 1.83103 -1.7069 20.075 5.0056 -32.2484 -0.465763 14.2792 -13.6458 -0.0470146 -4.849 60.245 -8.31017 39.3234 -28.3255 -0.975892 2.2888 36.2595 -21.3481 80.571 -22.1583 -0.530001 10.8316 -5.06157 -36.1792 -9.83944 -0.786001 0.112005 2.5817 -29.9218 33.5002 36.3093 -0.360106 -0.877992 4.2331 3.27634 -2.39824 9.40454 -1.8127 -1.216 2.2227 -4.44365 5.02823 -15.268 -0.9571 1.114 1.7695 0 2.38542e-015 -0 -4.12461 0.487011 4.1451 13.181 6.35504 -12.1375 -3.4052 -1.45401 2.7682 44.351 10.8049 -10.7983 -1.4531 -1.795 1.2713 45.4781 10.9508 -11.16 -5.69541 0.210003 2.1184 7.07151 1.28862 -2.16559 -3.9766 -1.54 2.3863 52.3089 13.53 -14.1043 -1.4042 -1.926 1.125 15.1721 5.32233 -2.78759 -2.0956 0.66 -0.3894 0 2.38542e-015 -0 -5.03951 -0.0899872 2.4971 14.479 -0.343109 -5.30922 -3.7921 -1.55201 1.4806 20.9794 7.69278 -5.18751 -1.4655 -1.808 0.960901 22.5759 8.18062 -5.68282 -4.91411 -1.26899 0.3592 -6.22065 -8.66596 -6.14887 -3.1477 -1.68501 0.846202 25.2632 9.75605 -6.40171 -0.8055 -1.585 0.795502 14.9453 6.18831 -3.3034 8.367 -8.2066 0.598201 77.9886 -50.212 79.3676 2.1923 -43.463 -0.493176 -179.817 39.5509 -178.043 0.733306 -45.8593 -2.6451 2.81993 -48.9606 -2.47347 -8.367 -8.2066 0.598198 -71.8271 -46.5792 -49.0588 -2.19237 -43.463 -0.4931 161.135 34.7147 -151.273 -0.733289 -45.8593 -2.64511 -8.60082 -40.5929 -7.90035 
